<svg width="126" height="94" viewBox="0 0 126 94" fill="none" xmlns="http://www.w3.org/2000/svg">
<g clip-path="url(#clip0_59_1298)">
<path d="M125.223 6.07965H44.8974C44.8139 6.07781 44.7345 6.04344 44.6761 5.98391C44.6177 5.92438 44.585 5.84441 44.585 5.76114C44.585 5.67787 44.6177 5.5979 44.6761 5.53837C44.7345 5.47884 44.8139 5.44447 44.8974 5.44263H125.223C125.307 5.44447 125.386 5.47884 125.444 5.53837C125.503 5.5979 125.535 5.67787 125.535 5.76114C125.535 5.84441 125.503 5.92438 125.444 5.98391C125.386 6.04344 125.307 6.07781 125.223 6.07965Z" fill="#E6E6E6"/>
<path d="M50.3652 3.81648C51.3991 3.81648 52.2372 2.96213 52.2372 1.90824C52.2372 0.854348 51.3991 0 50.3652 0C49.3313 0 48.4932 0.854348 48.4932 1.90824C48.4932 2.96213 49.3313 3.81648 50.3652 3.81648Z" fill="#3F3D56"/>
<path d="M56.8322 3.81648C57.8661 3.81648 58.7043 2.96213 58.7043 1.90824C58.7043 0.854348 57.8661 0 56.8322 0C55.7983 0 54.9602 0.854348 54.9602 1.90824C54.9602 2.96213 55.7983 3.81648 56.8322 3.81648Z" fill="#3F3D56"/>
<path d="M63.2993 3.81648C64.3332 3.81648 65.1713 2.96213 65.1713 1.90824C65.1713 0.854348 64.3332 0 63.2993 0C62.2654 0 61.4272 0.854348 61.4272 1.90824C61.4272 2.96213 62.2654 3.81648 63.2993 3.81648Z" fill="#3F3D56"/>
<path d="M121.329 0.471924H116.736C116.645 0.473979 116.558 0.511404 116.495 0.576188C116.431 0.640972 116.396 0.72797 116.396 0.818567C116.396 0.909164 116.431 0.996162 116.495 1.06095C116.558 1.12573 116.645 1.16315 116.736 1.16521H121.329C121.42 1.16398 121.507 1.12693 121.572 1.06205C121.636 0.997176 121.672 0.909704 121.672 0.818567C121.672 0.727429 121.636 0.639958 121.572 0.575082C121.507 0.510207 121.42 0.473147 121.329 0.471924Z" fill="#3F3D56"/>
<path d="M121.329 1.77368H116.736C116.645 1.77569 116.558 1.8131 116.495 1.87788C116.431 1.94267 116.396 2.02969 116.396 2.12031C116.396 2.21093 116.431 2.29795 116.495 2.36274C116.558 2.42753 116.645 2.46493 116.736 2.46694H121.329C121.42 2.46571 121.508 2.42864 121.572 2.36377C121.636 2.2989 121.672 2.21144 121.672 2.12031C121.672 2.02919 121.636 1.94173 121.572 1.87685C121.508 1.81198 121.42 1.77492 121.329 1.77368Z" fill="#3F3D56"/>
<path d="M121.329 3.07568H116.736C116.645 3.07774 116.558 3.11516 116.495 3.17995C116.431 3.24473 116.396 3.33173 116.396 3.42232C116.396 3.51292 116.431 3.59992 116.495 3.6647C116.558 3.72949 116.645 3.76691 116.736 3.76897H121.329C121.42 3.76774 121.507 3.73068 121.572 3.66581C121.636 3.60093 121.672 3.51346 121.672 3.42232C121.672 3.33119 121.636 3.24371 121.572 3.17884C121.507 3.11396 121.42 3.07691 121.329 3.07568Z" fill="#3F3D56"/>
<path d="M59.0435 38.811H91.4509C91.4905 38.811 91.5284 38.8267 91.5564 38.8546C91.5843 38.8825 91.6001 38.9203 91.6001 38.9598V57.7493C91.6001 57.7888 91.5843 57.8266 91.5564 57.8545C91.5284 57.8824 91.4905 57.8981 91.4509 57.8981H59.0435V38.811Z" fill="#E6E6E6"/>
<path d="M91.4128 57.9997L59.0007 38.9553L59.0861 38.667L91.4982 57.7115C91.5365 57.7227 91.5688 57.7488 91.5879 57.7838C91.607 57.8188 91.6114 57.8599 91.6 57.8981C91.5944 57.9171 91.5851 57.9347 91.5727 57.9501C91.5603 57.9654 91.5449 57.9782 91.5275 57.9876C91.5101 57.997 91.4911 58.0029 91.4714 58.005C91.4517 58.0071 91.4318 58.0053 91.4128 57.9997Z" fill="white"/>
<path d="M59.0861 58.0422L59.0007 57.754L91.4128 38.7095C91.4318 38.7039 91.4517 38.7021 91.4714 38.7042C91.4911 38.7063 91.5101 38.7122 91.5275 38.7216C91.5449 38.7311 91.5603 38.7438 91.5727 38.7592C91.5852 38.7745 91.5944 38.7922 91.6001 38.8111C91.6114 38.8493 91.607 38.8905 91.5879 38.9255C91.5688 38.9605 91.5365 38.9865 91.4982 38.9978L59.0861 58.0422Z" fill="white"/>
<path d="M87.7703 20.0146H62.8368C62.447 20.0146 62.1311 20.3297 62.1311 20.7183V20.7183C62.1311 21.1069 62.447 21.4219 62.8368 21.4219H87.7703C88.16 21.4219 88.4759 21.1069 88.4759 20.7183C88.4759 20.3297 88.16 20.0146 87.7703 20.0146Z" fill="#E6E6E6"/>
<path d="M91.1221 24.4072H59.4849C59.0952 24.4072 58.7793 24.7222 58.7793 25.1108C58.7793 25.4994 59.0952 25.8145 59.4849 25.8145H91.1221C91.5118 25.8145 91.8278 25.4994 91.8278 25.1108C91.8278 24.7222 91.5118 24.4072 91.1221 24.4072Z" fill="#E6E6E6"/>
<path d="M91.1221 28.7996H59.4849C59.0952 28.7996 58.7793 29.1146 58.7793 29.5032C58.7793 29.8918 59.0952 30.2068 59.4849 30.2068H91.1221C91.5118 30.2068 91.8278 29.8918 91.8278 29.5032C91.8278 29.1146 91.5118 28.7996 91.1221 28.7996Z" fill="#FF5050"/>
<path d="M121.123 43.628C121.122 46.2784 120.295 48.863 118.757 51.0246C117.219 53.1862 115.045 54.818 112.537 55.6946C112.427 55.7336 112.318 55.7691 112.208 55.8034C109.632 56.6245 106.862 56.6123 104.293 55.7684C101.725 54.9246 99.4899 53.2923 97.9081 51.1052C96.3263 48.9181 95.4787 46.2882 95.4866 43.5917C95.4945 40.8952 96.3575 38.2703 97.9522 36.0925C99.5468 33.9147 101.791 32.2955 104.365 31.4667C106.938 30.6378 109.708 30.6418 112.279 31.4779C114.85 32.314 117.09 33.9395 118.679 36.1218C120.267 38.3042 121.123 40.9315 121.123 43.628V43.628Z" fill="#E6E6E6"/>
<path d="M91.1164 30.4893C91.1027 30.6461 91.1237 30.804 91.1779 30.9519C91.232 31.0997 91.318 31.2339 91.4299 31.3451C91.5417 31.4562 91.6765 31.5415 91.825 31.595C91.9735 31.6485 92.1319 31.6689 92.2891 31.6548L93.8675 35.1424L94.9333 33.4619L93.271 30.4076C93.2297 30.1458 93.0935 29.9083 92.8882 29.7399C92.683 29.5716 92.4229 29.4841 92.1573 29.4942C91.8917 29.5043 91.6391 29.6111 91.4472 29.7945C91.2554 29.9779 91.1376 30.2251 91.1164 30.4893Z" fill="#FFB6B6"/>
<path d="M106.672 43.6233C106.649 43.5202 106.619 43.4187 106.584 43.3192C106.358 42.6782 105.897 42.146 105.294 41.8294C105.28 41.8211 105.264 41.8128 105.25 41.8057L98.0392 38.1574L97.3995 36.9138L94.8148 31.8928L94.181 32.081L92.6833 32.5247L92.6489 32.5342L95.1316 40.8649L95.7013 41.3004L102.154 46.2207L102.364 46.3817C102.882 46.7765 103.526 46.9726 104.177 46.9344C104.829 46.8961 105.445 46.6261 105.913 46.1734C106.01 46.081 106.099 45.9813 106.18 45.8752C106.423 45.559 106.593 45.1932 106.678 44.804C106.763 44.4147 106.761 44.0116 106.672 43.6233Z" fill="#FF5050"/>
<path d="M110.681 52.7728L110.643 51.4001L110.534 47.4194C110.929 44.8716 111.209 44.5888 109.303 42.8469C109.23 42.8314 109.161 42.8008 109.101 42.7572C109.041 42.7136 108.99 42.6579 108.953 42.5937C108.779 42.241 109.196 41.6423 108.836 40.7205L105.999 40.8826L105.294 41.8293L102.458 45.6396C102.346 45.828 102.245 46.0219 102.154 46.2206C100.94 48.85 102.586 50.2476 102.714 50.4878L103.5 52.9551L103.933 55.3478L104.073 55.6803L104.468 55.8247C106.989 56.6097 109.691 56.6023 112.208 55.8034C111.784 54.7525 111.274 53.7388 110.681 52.7728Z" fill="#FF5050"/>
<path d="M116.176 62.4498C116.241 62.306 116.273 62.15 116.27 61.9926C116.267 61.8352 116.23 61.6803 116.16 61.5389C116.091 61.3975 115.991 61.2729 115.869 61.174C115.746 61.0751 115.603 61.0042 115.45 60.9664L115.1 57.156L113.542 58.3975L114.113 61.8255C114.066 62.0864 114.117 62.3553 114.256 62.5813C114.395 62.8072 114.612 62.9745 114.867 63.0515C115.121 63.1285 115.395 63.1097 115.636 62.9988C115.878 62.8879 116.07 62.6926 116.176 62.4498L116.176 62.4498Z" fill="#FFB6B6"/>
<path d="M110.749 43.7666C110.546 43.4594 110.281 43.1969 109.972 42.9953C109.663 42.7936 109.316 42.657 108.953 42.5939C108.795 42.5655 108.635 42.5512 108.475 42.5513C107.942 42.5513 107.421 42.7082 106.977 43.0021C106.836 43.0949 106.704 43.2011 106.584 43.3193C106.327 43.567 106.122 43.8627 105.98 44.1895C105.838 44.5163 105.763 44.8677 105.757 45.2238C105.751 45.5798 105.816 45.9335 105.948 46.2646C106.079 46.5956 106.275 46.8976 106.523 47.1533L110.643 51.4003L112.144 52.9481L112.537 55.6947L113.141 59.9204L113.8 59.9488L115.362 60.0174L115.398 60.0186L115.658 54.0972L115.779 51.3364L110.749 43.7666Z" fill="#FF5050"/>
<path d="M105.12 34.225C104.117 36.1966 104.772 38.4804 106.634 39.6813C108.647 40.98 111.261 40.6956 112.106 38.1719C113.048 35.3616 112.274 34.1559 110.592 32.7156C108.622 31.0277 106.204 32.0947 105.12 34.225Z" fill="#2F2E41"/>
<path d="M110.059 38.6172C109.548 39.2845 108.793 39.7224 107.958 39.8346C107.124 39.9468 106.279 39.7242 105.609 39.2157C104.94 38.7072 104.5 37.9543 104.386 37.1226C104.273 36.2908 104.495 35.4482 105.005 34.7799L105.032 34.7438C105.552 34.0944 106.308 33.675 107.135 33.576C107.963 33.477 108.797 33.7064 109.456 34.2146C110.116 34.7229 110.548 35.4692 110.661 36.2927C110.773 37.1163 110.557 37.9509 110.058 38.6166L110.059 38.6172Z" fill="#FFB6B6"/>
<path d="M104.148 33.9057C104.664 34.3955 105.294 34.751 105.98 34.9408C106.118 34.7821 106.281 34.6472 106.463 34.5419C106.376 34.7226 106.316 34.9153 106.286 35.1135C106.592 35.7472 107.843 36.2027 109.038 36.6686L110.622 33.8823L108.526 32.6982C106.842 31.5373 104.859 32.0328 104.148 33.9057Z" fill="#2F2E41"/>
<path d="M111.816 32.7192C111.969 32.6631 112.133 32.6459 112.294 32.6694C112.456 32.6929 112.608 32.7562 112.739 32.8536C112.994 33.047 113.2 33.2972 113.341 33.5842C113.597 34.0486 113.782 34.5491 113.887 35.0685C113.978 35.518 113.962 36.0613 113.558 36.2958C113.221 36.4915 112.738 36.3683 112.428 36.1071C112.141 35.8331 111.923 35.4949 111.792 35.1205C111.641 34.7621 111.497 34.3904 111.229 34.0928L111.508 34.2228C111.42 33.9555 111.378 33.6749 111.386 33.3935C111.393 33.2535 111.436 33.1176 111.511 32.9993C111.586 32.881 111.692 32.7845 111.816 32.7192Z" fill="#2F2E41"/>
<path d="M108.191 33.0845L110.439 34.3548C111.047 34.6983 111.494 35.2686 111.68 35.9401C111.866 36.6117 111.777 37.3296 111.433 37.9358C110.931 38.8187 110.117 39.4833 109.15 39.7997C108.183 40.1162 107.133 40.0617 106.204 39.647L108.258 37.8385L105.471 39.2545L104.876 38.9183C107.865 38.3763 108.442 36.0383 108.191 33.0845Z" fill="#2F2E41"/>
<path d="M112.438 35.317C112.817 35.7563 113.409 35.927 113.944 36.1556C114.887 36.5683 115.715 37.204 116.356 38.0079C116.997 38.8118 117.432 39.7594 117.623 40.7687C117.77 41.5908 117.751 42.4418 117.985 43.2433C118.217 44.0447 118.791 44.831 119.616 44.9701C120.173 45.0651 120.733 44.8503 121.258 44.6382C121.546 44.5225 121.835 44.4064 122.123 44.2898C121.822 43.5366 121.522 42.7833 121.222 42.0301C121.704 42.741 122.265 43.3955 122.894 43.9814C123.928 43.5655 124.964 43.1496 126 42.7338C123.451 42.7434 123.886 40.2757 123.315 37.7998C123.002 36.4393 120.332 35.5181 119.809 34.2236C119.526 33.5216 119.047 32.915 118.43 32.4757C117.812 32.0363 117.081 31.7827 116.323 31.7447C115.565 31.7068 114.812 31.8861 114.153 32.2615C113.495 32.6369 112.957 33.1926 112.605 33.8629C112.082 34.0708 112.067 34.8833 112.438 35.317Z" fill="#2F2E41"/>
<path d="M38.383 59.1534C38.2578 58.9952 38.1684 58.8118 38.1213 58.6159C38.0741 58.4199 38.0701 58.2161 38.1097 58.0184C38.1493 57.8208 38.2315 57.6341 38.3506 57.4713C38.4696 57.3084 38.6227 57.1733 38.7993 57.0753L38.0713 50.1779L39.9351 49.5081L40.7397 57.7065C40.8831 58.0151 40.908 58.3655 40.8096 58.6912C40.7112 59.0169 40.4964 59.2953 40.2059 59.4737C39.9154 59.652 39.5694 59.7179 39.2334 59.6589C38.8975 59.5999 38.5949 59.42 38.383 59.1534Z" fill="#FFB6B6"/>
<path d="M37.3864 33.8657C37.3864 33.8657 40.412 35.3377 40.4218 37.0682C40.4317 38.7988 40.6823 40.3639 40.4455 41.0335C40.2087 41.7031 41.0472 46.5701 40.6547 47.0521C40.2622 47.5341 41.0708 47.7807 40.6459 48.6056C40.221 49.4304 40.0329 49.5857 40.1886 49.7733C40.3443 49.9609 40.5731 53.5366 40.5731 53.5366L38.0799 53.8475L35.4277 42.3064L37.3864 33.8657Z" fill="#3F3D56"/>
<path d="M22.9978 59.8542C23.1465 59.7177 23.2637 59.5506 23.3413 59.3645C23.4188 59.1784 23.455 58.9777 23.4471 58.7764C23.4393 58.575 23.3876 58.3777 23.2958 58.1982C23.204 58.0186 23.0741 57.8611 22.9153 57.7366L24.7249 51.0399L22.9903 50.0854L20.8993 58.0548C20.7089 58.3371 20.629 58.6792 20.6746 59.0163C20.7203 59.3534 20.8884 59.6621 21.147 59.8839C21.4057 60.1056 21.737 60.2251 22.0781 60.2196C22.4192 60.2142 22.7464 60.0841 22.9978 59.8542H22.9978Z" fill="#FFB6B6"/>
<path d="M27.9807 35.0393C27.9807 35.0393 24.7601 36.0172 24.4768 37.7245C24.1935 39.4319 23.6985 40.9381 23.8264 41.6365C23.9543 42.3349 22.3568 47.0092 22.6681 47.5469C22.9795 48.0846 22.142 48.201 22.4311 49.0823C22.7203 49.9637 22.8815 50.1466 22.6981 50.3074C22.5147 50.4681 21.7234 53.9632 21.7234 53.9632L24.1362 54.6621L28.5801 43.6823L27.9807 35.0393Z" fill="#3F3D56"/>
<path d="M40.3487 89.8146L42.4967 89.8144L43.5187 81.5527L40.3484 81.5529L40.3487 89.8146Z" fill="#FFB6B6"/>
<path d="M43.2117 90.0073V88.5552L42.647 88.5896L40.3482 88.7254L39.8162 88.758L39.4095 93.6212L39.3877 93.8819H40.913L40.962 93.623L41.1835 92.4461L41.7555 93.623L41.8808 93.8819H45.9245C46.1652 93.8804 46.3955 93.7843 46.5655 93.6144C46.7355 93.4446 46.8314 93.2147 46.8324 92.9748C47.0031 92.1799 43.6403 90.4617 43.2117 90.0073Z" fill="#2F2E41"/>
<path d="M15.1826 87.4831L17.051 88.54L22.0287 81.8572L19.2712 80.2974L15.1826 87.4831Z" fill="#FFB6B6"/>
<path d="M17.5782 89.0585L18.2955 87.7965L17.7907 87.5485L15.7225 86.5364L15.2431 86.301L12.8881 89.7393L12.3342 90.5468L12.9607 90.9017L13.6598 91.2982L14.6076 90.1829L14.5023 91.7744L17.8052 93.6447H17.807L18.0195 93.7642C18.2292 93.8824 18.4775 93.9127 18.7097 93.8485C18.9418 93.7844 19.139 93.631 19.2578 93.422C19.799 92.8136 17.7253 89.6669 17.5782 89.0585Z" fill="#2F2E41"/>
<path d="M29.6886 49.2596C24.9277 49.4301 23.2545 68.7855 24.7084 69.1366L17.9236 81.7446L27.5807 86.0611L33.9305 64.0768L34.9887 72.167L33.5777 85.0058L39.8199 86.5111L44.1375 86.2035C43.0156 70.8999 40.2144 54.7593 37.893 48.5159L29.6886 49.2596Z" fill="#2F2E41"/>
<path d="M27.503 50.6167L27.4716 50.7342C30.5147 52.4224 32.5927 52.0612 35.9193 51.0394L38.3477 50.5304C38.8777 49.8412 38.4458 49.1671 37.8585 48.5108L39.3143 36.571C39.3119 36.1872 39.2303 35.8079 39.0748 35.4568C38.9192 35.1056 38.6929 34.7901 38.4099 34.5299C38.1269 34.2696 37.7933 34.0701 37.4297 33.9438C37.0662 33.8174 36.6805 33.767 36.2966 33.7955L34.1097 32.1802L30.9966 32.2873L28.9141 34.5809L27.67 35.0241L26.7034 35.3677C26.508 35.5432 26.2947 35.7455 26.0903 35.9686L27.6193 45.0419L28.2697 47.7549C27.3979 48.7461 26.9175 49.7136 27.503 50.6167Z" fill="#3F3D56"/>
<path d="M9.84142 92.3835C8.72288 92.2507 7.64821 91.8705 6.69591 91.2706C5.74361 90.6706 4.93772 89.8662 4.33711 88.916C3.55608 87.653 3.15307 86.1531 2.76332 84.7025C2.64983 84.2804 2.53257 83.8439 2.40838 83.4231C2.26797 82.9633 2.26884 82.4721 2.4109 82.0128C2.55296 81.5535 2.82969 81.1471 3.20544 80.846C3.56868 80.5424 4.01478 80.3542 4.48626 80.3057C4.95773 80.2572 5.43297 80.3506 5.85074 80.5738L5.94193 80.622L6.10174 84.2034C6.33853 83.7237 6.85815 82.6398 7.26983 81.5575L7.30435 81.4668L7.38324 81.5236C8.21089 82.1165 8.96038 82.811 9.61402 83.5906C10.7682 84.9897 11.6029 86.6226 12.0603 88.3758C12.5176 90.1291 12.5866 91.9606 12.2624 93.7431L12.2425 93.8493L9.84142 92.3835Z" fill="#F2F2F2"/>
<path d="M7.85683e-07 93.823C-6.87382e-05 93.8463 0.00447644 93.8693 0.0133732 93.8908C0.02227 93.9123 0.0353443 93.9319 0.0518427 93.9483C0.0683411 93.9648 0.0879377 93.9778 0.109507 93.9867C0.131076 93.9955 0.154192 94.0001 0.177523 94H125.822C125.87 94 125.915 93.9813 125.948 93.9482C125.981 93.915 126 93.8699 126 93.823C126 93.7761 125.981 93.731 125.948 93.6978C125.915 93.6646 125.87 93.646 125.822 93.646H0.177514C0.154184 93.6459 0.13107 93.6505 0.109502 93.6593C0.0879346 93.6682 0.0683377 93.6812 0.0518404 93.6977C0.0353431 93.7141 0.0222698 93.7337 0.0133732 93.7552C0.00447672 93.7767 -6.79405e-05 93.7997 7.85683e-07 93.823Z" fill="#CCCCCC"/>
<path d="M36.9806 30.1433L36.9837 30.1425C37.1465 30.0995 37.2855 29.9938 37.3702 29.8487C37.4549 29.7035 37.4782 29.5307 37.4351 29.3684L36.5307 25.9518C36.3692 25.3395 36.0859 24.7659 35.6977 24.2649C34.9385 23.2878 33.8303 22.6405 32.6043 22.458C31.9715 22.3645 31.3263 22.3998 30.7075 22.5616C28.176 23.2236 27.469 24.0585 27.3261 28.3308C27.1832 32.6031 28.232 31.7526 28.232 31.7526C28.2537 31.8349 28.2918 31.9121 28.3441 31.9795C28.4463 32.1108 28.5955 32.1977 28.7605 32.2219C28.8451 32.2343 28.9313 32.2295 29.0141 32.208C32.1753 31.8835 35.3769 31.588 36.9811 30.1432L36.9806 30.1433Z" fill="#2F2E41"/>
<path d="M29.5481 26.5362C29.382 27.2045 29.4183 27.9068 29.6524 28.5545C29.8864 29.2022 30.3077 29.7663 30.863 30.1754C31.4184 30.5845 32.0828 30.8203 32.7725 30.8531C33.4621 30.8859 34.1461 30.7141 34.7379 30.3595C35.1302 30.1262 35.4721 29.8175 35.7439 29.4515C36.0157 29.0854 36.2119 28.6692 36.3213 28.227C36.4866 27.5591 36.4499 26.8575 36.2159 26.2104C35.9819 25.5634 35.5609 24.9999 35.0062 24.591C34.4514 24.1822 33.7877 23.9463 33.0987 23.913C32.4096 23.8798 31.7262 24.0507 31.1344 24.4042C30.7416 24.6372 30.3992 24.9457 30.1268 25.3117C29.8545 25.6777 29.6578 26.094 29.5481 26.5364L29.5481 26.5362Z" fill="#FFB6B6"/>
<path d="M37.691 25.9437C37.5633 25.4595 37.3393 25.0058 37.0322 24.6096C36.596 23.5253 35.9118 22.6489 34.5861 23.181C34.0888 23.1077 33.5819 23.1349 33.0954 23.261L32.4087 23.4381C32.401 23.4401 32.3933 23.4421 32.3856 23.4441C31.4267 23.6971 30.6078 24.3196 30.1092 25.1746C29.6106 26.0296 29.473 27.0471 29.7268 28.0033L29.7449 28.0717L31.1972 27.6957L31.3271 26.1874L31.7915 27.5421L32.5417 27.3482L32.6071 26.5873L32.8415 27.2703C34.2639 27.8213 35.9125 27.2746 37.7085 26.0124L37.691 25.9437Z" fill="#2F2E41"/>
<path d="M34.3589 30.7182C34.4109 30.8227 34.4324 30.9396 34.421 31.0556C34.4156 31.1149 34.4018 31.1732 34.3802 31.2287C34.3616 31.276 34.3375 31.321 34.3083 31.3626C34.2218 31.4857 34.0942 31.5741 33.9482 31.6118C33.9391 31.6141 33.93 31.6163 33.9208 31.6182C33.9116 31.6202 33.9023 31.622 33.893 31.6235C33.8837 31.6252 33.8743 31.6265 33.8649 31.6277C33.8554 31.6288 33.8459 31.6298 33.8363 31.6306L33.2967 31.6728L32.1875 30.3486L32.5539 31.7325L30.1015 31.9284L28.5469 26.0557L32.4765 25.0415L32.4093 25.1794C32.187 25.6412 32.0969 26.1552 32.1487 26.6648C32.2037 27.1802 32.3469 27.6825 32.5721 28.1498C32.7961 28.6236 33.0653 29.0748 33.3758 29.4973C33.6488 29.8722 33.9431 30.2311 34.2575 30.5722C34.298 30.6159 34.3321 30.665 34.3589 30.7182Z" fill="#2F2E41"/>
</g>
<defs>
<clipPath id="clip0_59_1298">
<rect width="126" height="94" fill="white"/>
</clipPath>
</defs>
</svg>
