<?xml version="1.0" encoding="utf-8"?>
<!-- Generator: Adobe Illustrator 24.2.1, SVG Export Plug-In . SVG Version: 6.00 Build 0)  -->
<svg version="1.1" id="Layer_1" xmlns="http://www.w3.org/2000/svg" xmlns:xlink="http://www.w3.org/1999/xlink" x="0px" y="0px"
	 viewBox="0 0 2000 2000" style="enable-background:new 0 0 2000 2000;" xml:space="preserve">
<style type="text/css">
	.st0{fill:#FCE375;}
	.st1{fill:#FDD324;}
	.st2{fill:#FFE161;}
	.st3{fill:#FCB622;}
	.st4{fill:#F89C1C;}
	.st5{fill:#F89E1D;}
	.st6{fill:#FFDB47;}
</style>
<g>
	
		<ellipse transform="matrix(0.7071 -0.7071 0.7071 0.7071 -414.2135 999.9999)" class="st0" cx="1000" cy="1000" rx="1000" ry="1000"/>
	
		<ellipse transform="matrix(0.7071 -0.7071 0.7071 0.7071 -414.2135 999.9999)" class="st1" cx="1000" cy="1000" rx="974.44" ry="974.44"/>
	<circle class="st2" cx="1020.12" cy="1018.97" r="776.26"/>
	
		<ellipse transform="matrix(0.7071 -0.7071 0.7071 0.7071 -413.8574 999.0629)" class="st3" cx="999.05" cy="999.1" rx="776.26" ry="776.26"/>
	<path class="st4" d="M264.93,1041.25c0-428.72,347.55-776.27,776.27-776.27c203.64,0,388.87,78.52,527.33,206.8
		c-141.79-153.05-344.4-248.95-569.48-248.95c-428.72,0-776.27,347.55-776.27,776.27c0,225.09,95.9,427.7,248.95,569.48
		C343.45,1430.12,264.93,1244.89,264.93,1041.25z"/>
</g>
<g>
	<g>
		<path class="st5" d="M1444.08,615.03c-21.55-22.1-46.83-40.59-74.78-54.53c-29.05-14.49-60.96-24.06-94.65-27.52
			c-9.5-1.02-19.16-1.53-28.93-1.53c-153.18,0-277.78,124.6-277.78,277.78v158.71H809.24c-153.18,0-277.78,124.6-277.78,277.78
			c0,9.77,0.51,19.43,1.53,28.93c3.45,33.68,12.99,65.6,27.52,94.65c13.9,27.91,32.39,53.19,54.49,74.78
			c50.13,49.15,118.71,79.42,194.24,79.42c153.18,0,277.78-124.6,277.78-277.78v-158.71h158.71c153.18,0,277.78-124.6,277.78-277.78
			C1523.5,733.7,1493.19,665.12,1444.08,615.03z M966.85,1245.72c0,86.87-70.7,157.57-157.61,157.57
			c-42.4,0-80.95-16.84-109.29-44.16c-23-22.18-39.3-51.23-45.46-83.81c-1.88-9.58-2.83-19.47-2.83-29.6
			c0-86.91,70.7-157.57,157.57-157.57h157.61V1245.72z M1245.72,966.85h-157.61V809.23c0-86.87,70.7-157.57,157.61-157.57
			c10.13,0,20.02,0.94,29.6,2.83c32.62,6.2,61.67,22.49,83.81,45.5c27.36,28.34,44.16,66.89,44.16,109.25
			C1403.3,896.15,1332.6,966.85,1245.72,966.85z"/>
	</g>
	<g>
		<g>
			<path class="st6" d="M1416.61,587.55c-21.55-22.1-46.83-40.59-74.78-54.53c-29.05-14.49-60.96-24.06-94.65-27.52
				c-9.5-1.02-19.16-1.53-28.93-1.53c-153.18,0-277.78,124.6-277.78,277.78v158.71H781.76c-153.18,0-277.78,124.6-277.78,277.78
				c0,9.77,0.51,19.43,1.53,28.93c3.45,33.68,12.99,65.6,27.52,94.65c13.9,27.91,32.39,53.19,54.49,74.78
				c50.13,49.15,118.71,79.42,194.24,79.42c153.18,0,277.78-124.6,277.78-277.78v-158.71h158.71
				c153.18,0,277.78-124.6,277.78-277.78C1496.02,706.22,1465.71,637.64,1416.61,587.55z M939.37,1218.24
				c0,86.87-70.7,157.57-157.61,157.57c-42.4,0-80.95-16.84-109.29-44.16c-23-22.18-39.3-51.23-45.46-83.81
				c-1.88-9.58-2.83-19.47-2.83-29.6c0-86.91,70.7-157.57,157.57-157.57h157.61V1218.24z M1218.24,939.37h-157.61V781.75
				c0-86.87,70.7-157.57,157.61-157.57c10.13,0,20.02,0.94,29.6,2.83c32.62,6.2,61.67,22.49,83.81,45.5
				c27.36,28.34,44.16,66.89,44.16,109.25C1375.82,868.67,1305.12,939.37,1218.24,939.37z"/>
		</g>
	</g>
</g>
</svg>
